<svg xmlns="http://www.w3.org/2000/svg" viewBox="0 0 512 512" fill="none">
  <defs>
    <linearGradient id="grad" x1="0%" y1="0%" x2="100%" y2="100%">
      <stop offset="0%" style="stop-color:#8ccf7e"/>
      <stop offset="100%" style="stop-color:#6cbfbf"/>
    </linearGradient>
  </defs>
  <!-- Background circle -->
  <circle cx="256" cy="256" r="240" fill="#141b1e"/>
  <!-- Outer ring -->
  <circle cx="256" cy="256" r="220" fill="none" stroke="url(#grad)" stroke-width="8" opacity="0.3"/>
  <!-- Rocket body -->
  <path d="M256 80c-40 60-60 120-60 180 0 60 30 100 60 120 30-20 60-60 60-120 0-60-20-120-60-180z" fill="url(#grad)"/>
  <!-- Rocket window -->
  <circle cx="256" cy="200" r="30" fill="#141b1e"/>
  <circle cx="256" cy="200" r="20" fill="#dadada" opacity="0.8"/>
  <!-- Flames -->
  <path d="M230 380 L256 440 L282 380 Q256 420 230 380" fill="#e67e80"/>
  <path d="M240 380 L256 420 L272 380 Q256 400 240 380" fill="#e5c76b"/>
  <!-- Fins -->
  <path d="M196 320 L220 280 L220 340 Z" fill="url(#grad)"/>
  <path d="M316 320 L292 280 L292 340 Z" fill="url(#grad)"/>
  <!-- Data nodes -->
  <circle cx="140" cy="200" r="12" fill="#8ccf7e" opacity="0.6"/>
  <circle cx="120" cy="280" r="8" fill="#6cbfbf" opacity="0.5"/>
  <circle cx="372" cy="200" r="12" fill="#8ccf7e" opacity="0.6"/>
  <circle cx="392" cy="280" r="8" fill="#6cbfbf" opacity="0.5"/>
  <!-- Connection lines -->
  <line x1="152" y1="200" x2="196" y2="260" stroke="#8ccf7e" stroke-width="2" opacity="0.4"/>
  <line x1="360" y1="200" x2="316" y2="260" stroke="#8ccf7e" stroke-width="2" opacity="0.4"/>
</svg>
